<?xml version="1.0" encoding="UTF-8" standalone="no"?>
<!-- Created with Inkscape (http://www.inkscape.org/) -->

<svg
   xmlns:dc="http://purl.org/dc/elements/1.1/"
   xmlns:cc="http://creativecommons.org/ns#"
   xmlns:rdf="http://www.w3.org/1999/02/22-rdf-syntax-ns#"
   xmlns:svg="http://www.w3.org/2000/svg"
   xmlns="http://www.w3.org/2000/svg"
   xmlns:sodipodi="http://sodipodi.sourceforge.net/DTD/sodipodi-0.dtd"
   xmlns:inkscape="http://www.inkscape.org/namespaces/inkscape"
   width="1024"
   height="1024"
   id="svg2985"
   version="1.1"
   inkscape:version="0.48.5 r10040"
   sodipodi:docname="ic_play_all.svg">
  <defs
     id="defs2987" />
  <sodipodi:namedview
     id="base"
     pagecolor="#ffffff"
     bordercolor="#666666"
     borderopacity="1.0"
     inkscape:pageopacity="0.0"
     inkscape:pageshadow="2"
     inkscape:zoom="0.49497475"
     inkscape:cx="150.79438"
     inkscape:cy="481.13962"
     inkscape:document-units="px"
     inkscape:current-layer="layer1"
     showgrid="false" />
  <metadata
     id="metadata2990">
    <rdf:RDF>
      <cc:Work
         rdf:about="">
        <dc:format>image/svg+xml</dc:format>
        <dc:type
           rdf:resource="http://purl.org/dc/dcmitype/StillImage" />
        <dc:title />
      </cc:Work>
    </rdf:RDF>
  </metadata>
  <g
     inkscape:label="レイヤー 1"
     inkscape:groupmode="layer"
     id="layer1"
     transform="translate(0,-28.36218)">
    <path
       style="opacity:0.98000003999999996;fill:#ffffff;fill-opacity:1;fill-rule:nonzero;stroke:none"
       d="m 93.866134,94.292388 0,412.392352 0,412.39239 273.818996,-158.12339 59.95732,-160.38139 37.49562,0 32.68242,85.27132 146.4765,-84.55827 0,-12.59755 44.62633,-13.19182 119.2016,-68.81129 L 450.99551,300.48855 93.866134,94.292388 z m 595.057186,481.203642 -44.62633,25.78937 0,4.9915 43.67558,0 0,347.32489 -9.62645,9.09173 -33.51432,2.79275 0,20.44145 132.80937,0 0,-20.44145 -32.32586,-2.79275 -10.22067,-9.09173 0,-385.35531 -21.57039,0 -24.60093,7.24955 z m -191.10283,110.34764 -42.42771,24.48207 39.81311,107.0794 -114.62607,0 28.76052,-80.4581 -41.65521,24.0067 -72.79259,194.90623 -32.9201,6.83355 0,23.2342 111.23899,0 0,-23.2342 -36.9014,-2.85235 -5.70456,-7.96255 40.28848,-108.387 133.93838,0 40.88269,108.387 -3.98129,7.96255 -35.17813,2.85235 0,23.2342 128.82804,0 0,-23.2342 -34.04913,-6.83355 -103.51402,-270.0163 z m -88.48015,51.10337 41.65517,-24.06612 4.39727,-2.55518 -18.65865,-50.15262 -27.39379,76.77392 z m 463.79283,-168.70056 -69.22724,20.44137 0,17.58905 43.67554,0 0,347.32489 -9.62644,9.09173 -33.51432,2.79275 0,20.44145 132.80935,0 0,-20.44145 -32.32585,-2.79275 -10.22066,-9.09173 0,-385.35531 -21.57038,0 z"
       id="path2993"
       inkscape:connector-curvature="0" />
  </g>
</svg>
